<svg id="visual" viewBox="0 0 900 450" width="900" height="450" xmlns="http://www.w3.org/2000/svg" xmlns:xlink="http://www.w3.org/1999/xlink" version="1.1"><rect x="0" y="0" width="900" height="450" fill="#001220"></rect><path d="M0 314L21.5 308.5C43 303 86 292 128.8 288.2C171.7 284.3 214.3 287.7 257.2 296.8C300 306 343 321 385.8 319.3C428.7 317.7 471.3 299.3 514.2 289.2C557 279 600 277 642.8 284.5C685.7 292 728.3 309 771.2 315.3C814 321.7 857 317.3 878.5 315.2L900 313L900 451L878.5 451C857 451 814 451 771.2 451C728.3 451 685.7 451 642.8 451C600 451 557 451 514.2 451C471.3 451 428.7 451 385.8 451C343 451 300 451 257.2 451C214.3 451 171.7 451 128.8 451C86 451 43 451 21.5 451L0 451Z" fill="#fa7268"></path><path d="M0 355L21.5 351.8C43 348.7 86 342.3 128.8 334.2C171.7 326 214.3 316 257.2 315.5C300 315 343 324 385.8 324.2C428.7 324.3 471.3 315.7 514.2 315.8C557 316 600 325 642.8 328C685.7 331 728.3 328 771.2 330.7C814 333.3 857 341.7 878.5 345.8L900 350L900 451L878.5 451C857 451 814 451 771.2 451C728.3 451 685.7 451 642.8 451C600 451 557 451 514.2 451C471.3 451 428.7 451 385.8 451C343 451 300 451 257.2 451C214.3 451 171.7 451 128.8 451C86 451 43 451 21.5 451L0 451Z" fill="#ef5f67"></path><path d="M0 353L21.5 353.8C43 354.7 86 356.3 128.8 358C171.7 359.7 214.3 361.3 257.2 356.5C300 351.7 343 340.3 385.8 338.2C428.7 336 471.3 343 514.2 351.7C557 360.3 600 370.7 642.8 373.5C685.7 376.3 728.3 371.7 771.2 371.3C814 371 857 375 878.5 377L900 379L900 451L878.5 451C857 451 814 451 771.2 451C728.3 451 685.7 451 642.8 451C600 451 557 451 514.2 451C471.3 451 428.7 451 385.8 451C343 451 300 451 257.2 451C214.3 451 171.7 451 128.8 451C86 451 43 451 21.5 451L0 451Z" fill="#e34c67"></path><path d="M0 382L21.5 382C43 382 86 382 128.8 381.8C171.7 381.7 214.3 381.3 257.2 377.8C300 374.3 343 367.7 385.8 367.8C428.7 368 471.3 375 514.2 381.7C557 388.3 600 394.7 642.8 394.3C685.7 394 728.3 387 771.2 382.5C814 378 857 376 878.5 375L900 374L900 451L878.5 451C857 451 814 451 771.2 451C728.3 451 685.7 451 642.8 451C600 451 557 451 514.2 451C471.3 451 428.7 451 385.8 451C343 451 300 451 257.2 451C214.3 451 171.7 451 128.8 451C86 451 43 451 21.5 451L0 451Z" fill="#d53867"></path><path d="M0 409L21.5 407.5C43 406 86 403 128.8 401.3C171.7 399.7 214.3 399.3 257.2 404.3C300 409.3 343 419.7 385.8 418.8C428.7 418 471.3 406 514.2 404.2C557 402.3 600 410.7 642.8 412C685.7 413.3 728.3 407.7 771.2 409C814 410.3 857 418.7 878.5 422.8L900 427L900 451L878.5 451C857 451 814 451 771.2 451C728.3 451 685.7 451 642.8 451C600 451 557 451 514.2 451C471.3 451 428.7 451 385.8 451C343 451 300 451 257.2 451C214.3 451 171.7 451 128.8 451C86 451 43 451 21.5 451L0 451Z" fill="#c62368"></path></svg>